  0
SECTION
  2
BLOCKS
  0
ENDSEC
  0
SECTION
  2
ENTITIES
  0
LINE
  8
0
 10
26.8738
 20
-34.8229
 11
28.0902
 21
-34.5106
  0
LINE
  8
0
 10
28.0902
 20
-34.5106
 11
29.2578
 21
-34.0483
  0
LINE
  8
0
 10
29.2578
 20
-34.0483
 11
30.3583
 21
-33.4433
  0
LINE
  8
0
 10
30.3583
 20
-33.4433
 11
31.3742
 21
-32.7051
  0
LINE
  8
0
 10
31.3742
 20
-32.7051
 11
32.2897
 21
-31.8455
  0
LINE
  8
0
 10
32.2897
 20
-31.8455
 11
33.0902
 21
-30.8778
  0
LINE
  8
0
 10
33.0902
 20
-30.8778
 11
33.7631
 21
-29.8175
  0
LINE
  8
0
 10
33.7631
 20
-29.8175
 11
34.2978
 21
-28.6812
  0
LINE
  8
0
 10
34.2978
 20
-28.6812
 11
34.6858
 21
-27.4869
  0
LINE
  8
0
 10
34.6858
 20
-27.4869
 11
34.9211
 21
-26.2533
  0
LINE
  8
0
 10
34.9211
 20
-26.2533
 11
35
 21
-25
  0
LINE
  8
0
 10
35
 20
-25
 11
35
 21
25
  0
LINE
  8
0
 10
35
 20
25
 11
34.9211
 21
26.2533
  0
LINE
  8
0
 10
34.9211
 20
26.2533
 11
34.6858
 21
27.4869
  0
LINE
  8
0
 10
34.6858
 20
27.4869
 11
34.2978
 21
28.6812
  0
LINE
  8
0
 10
34.2978
 20
28.6812
 11
33.7631
 21
29.8175
  0
LINE
  8
0
 10
33.7631
 20
29.8175
 11
33.0902
 21
30.8778
  0
LINE
  8
0
 10
33.0902
 20
30.8778
 11
32.2897
 21
31.8455
  0
LINE
  8
0
 10
32.2897
 20
31.8455
 11
31.3742
 21
32.7051
  0
LINE
  8
0
 10
31.3742
 20
32.7051
 11
30.3583
 21
33.4433
  0
LINE
  8
0
 10
30.3583
 20
33.4433
 11
29.2578
 21
34.0483
  0
LINE
  8
0
 10
29.2578
 20
34.0483
 11
28.0902
 21
34.5106
  0
LINE
  8
0
 10
28.0902
 20
34.5106
 11
26.8738
 21
34.8229
  0
LINE
  8
0
 10
26.8738
 20
34.8229
 11
25.6279
 21
34.9803
  0
LINE
  8
0
 10
25.6279
 20
34.9803
 11
-25.6279
 21
34.9803
  0
LINE
  8
0
 10
-25.6279
 20
34.9803
 11
-26.8738
 21
34.8229
  0
LINE
  8
0
 10
-26.8738
 20
34.8229
 11
-28.0902
 21
34.5106
  0
LINE
  8
0
 10
-28.0902
 20
34.5106
 11
-29.2578
 21
34.0483
  0
LINE
  8
0
 10
-29.2578
 20
34.0483
 11
-30.3583
 21
33.4433
  0
LINE
  8
0
 10
-30.3583
 20
33.4433
 11
-31.3742
 21
32.7051
  0
LINE
  8
0
 10
-31.3742
 20
32.7051
 11
-32.2897
 21
31.8455
  0
LINE
  8
0
 10
-32.2897
 20
31.8455
 11
-33.0902
 21
30.8778
  0
LINE
  8
0
 10
-33.0902
 20
30.8778
 11
-33.7631
 21
29.8175
  0
LINE
  8
0
 10
-33.7631
 20
29.8175
 11
-34.2978
 21
28.6812
  0
LINE
  8
0
 10
-34.2978
 20
28.6812
 11
-34.6858
 21
27.4869
  0
LINE
  8
0
 10
-34.6858
 20
27.4869
 11
-34.9211
 21
26.2533
  0
LINE
  8
0
 10
-34.9211
 20
26.2533
 11
-35
 21
25
  0
LINE
  8
0
 10
-35
 20
25
 11
-35
 21
-25
  0
LINE
  8
0
 10
-35
 20
-25
 11
-34.9211
 21
-26.2533
  0
LINE
  8
0
 10
-34.9211
 20
-26.2533
 11
-34.6858
 21
-27.4869
  0
LINE
  8
0
 10
-34.6858
 20
-27.4869
 11
-34.2978
 21
-28.6812
  0
LINE
  8
0
 10
-34.2978
 20
-28.6812
 11
-33.7631
 21
-29.8175
  0
LINE
  8
0
 10
-33.7631
 20
-29.8175
 11
-33.0902
 21
-30.8778
  0
LINE
  8
0
 10
-33.0902
 20
-30.8778
 11
-32.2897
 21
-31.8455
  0
LINE
  8
0
 10
-32.2897
 20
-31.8455
 11
-31.3742
 21
-32.7051
  0
LINE
  8
0
 10
-31.3742
 20
-32.7051
 11
-30.3583
 21
-33.4433
  0
LINE
  8
0
 10
-30.3583
 20
-33.4433
 11
-29.2578
 21
-34.0483
  0
LINE
  8
0
 10
-29.2578
 20
-34.0483
 11
-28.0902
 21
-34.5106
  0
LINE
  8
0
 10
-28.0902
 20
-34.5106
 11
-26.8738
 21
-34.8229
  0
LINE
  8
0
 10
-26.8738
 20
-34.8229
 11
-25.6279
 21
-34.9803
  0
LINE
  8
0
 10
-25.6279
 20
-34.9803
 11
25.6279
 21
-34.9803
  0
LINE
  8
0
 10
25.6279
 20
-34.9803
 11
26.8738
 21
-34.8229
  0
LINE
  8
0
 10
4.31161
 20
27.0059
 11
3.93785
 21
27.0531
  0
LINE
  8
0
 10
3.93785
 20
27.0531
 11
3.57294
 21
27.1468
  0
LINE
  8
0
 10
3.57294
 20
27.1468
 11
3.22266
 21
27.2855
  0
LINE
  8
0
 10
3.22266
 20
27.2855
 11
2.89252
 21
27.467
  0
LINE
  8
0
 10
2.89252
 20
27.467
 11
2.58772
 21
27.6885
  0
LINE
  8
0
 10
2.58772
 20
27.6885
 11
2.31308
 21
27.9464
  0
LINE
  8
0
 10
2.31308
 20
27.9464
 11
2.07294
 21
28.2366
  0
LINE
  8
0
 10
2.07294
 20
28.2366
 11
1.93567
 21
28.453
  0
LINE
  8
0
 10
1.93567
 20
28.453
 11
-5.09418
 21
28.453
  0
LINE
  8
0
 10
-5.09418
 20
28.453
 11
-5.28107
 21
28.4766
  0
LINE
  8
0
 10
-5.28107
 20
28.4766
 11
-5.46352
 21
28.5234
  0
LINE
  8
0
 10
-5.46352
 20
28.5234
 11
-5.63866
 21
28.5928
  0
LINE
  8
0
 10
-5.63866
 20
28.5928
 11
-5.80373
 21
28.6835
  0
LINE
  8
0
 10
-5.80373
 20
28.6835
 11
-5.95613
 21
28.7943
  0
LINE
  8
0
 10
-5.95613
 20
28.7943
 11
-6.09344
 21
28.9232
  0
LINE
  8
0
 10
-6.09344
 20
28.9232
 11
-6.21352
 21
29.0683
  0
LINE
  8
0
 10
-6.21352
 20
29.0683
 11
-6.31445
 21
29.2274
  0
LINE
  8
0
 10
-6.31445
 20
29.2274
 11
-6.39465
 21
29.3978
  0
LINE
  8
0
 10
-6.39465
 20
29.3978
 11
-6.45287
 21
29.577
  0
LINE
  8
0
 10
-6.45287
 20
29.577
 11
-6.48816
 21
29.762
  0
LINE
  8
0
 10
-6.48816
 20
29.762
 11
-6.5
 21
29.95
  0
LINE
  8
0
 10
-6.5
 20
29.95
 11
-6.5
 21
30.05
  0
LINE
  8
0
 10
-6.5
 20
30.05
 11
-6.48816
 21
30.238
  0
LINE
  8
0
 10
-6.48816
 20
30.238
 11
-6.45287
 21
30.423
  0
LINE
  8
0
 10
-6.45287
 20
30.423
 11
-6.39465
 21
30.6022
  0
LINE
  8
0
 10
-6.39465
 20
30.6022
 11
-6.31445
 21
30.7726
  0
LINE
  8
0
 10
-6.31445
 20
30.7726
 11
-6.21352
 21
30.9317
  0
LINE
  8
0
 10
-6.21352
 20
30.9317
 11
-6.09344
 21
31.0768
  0
LINE
  8
0
 10
-6.09344
 20
31.0768
 11
-5.95613
 21
31.2057
  0
LINE
  8
0
 10
-5.95613
 20
31.2057
 11
-5.80373
 21
31.3165
  0
LINE
  8
0
 10
-5.80373
 20
31.3165
 11
-5.63866
 21
31.4072
  0
LINE
  8
0
 10
-5.63866
 20
31.4072
 11
-5.46352
 21
31.4766
  0
LINE
  8
0
 10
-5.46352
 20
31.4766
 11
-5.28107
 21
31.5234
  0
LINE
  8
0
 10
-5.28107
 20
31.5234
 11
-5.09418
 21
31.547
  0
LINE
  8
0
 10
-5.09418
 20
31.547
 11
1.93567
 21
31.547
  0
LINE
  8
0
 10
1.93567
 20
31.547
 11
2.07294
 21
31.7634
  0
LINE
  8
0
 10
2.07294
 20
31.7634
 11
2.31308
 21
32.0536
  0
LINE
  8
0
 10
2.31308
 20
32.0536
 11
2.58772
 21
32.3115
  0
LINE
  8
0
 10
2.58772
 20
32.3115
 11
2.89252
 21
32.533
  0
LINE
  8
0
 10
2.89252
 20
32.533
 11
3.22266
 21
32.7145
  0
LINE
  8
0
 10
3.22266
 20
32.7145
 11
3.57294
 21
32.8532
  0
LINE
  8
0
 10
3.57294
 20
32.8532
 11
3.93785
 21
32.9469
  0
LINE
  8
0
 10
3.93785
 20
32.9469
 11
4.31161
 21
32.9941
  0
LINE
  8
0
 10
4.31161
 20
32.9941
 11
4.68837
 21
32.9941
  0
LINE
  8
0
 10
4.68837
 20
32.9941
 11
5.06213
 21
32.9469
  0
LINE
  8
0
 10
5.06213
 20
32.9469
 11
5.42705
 21
32.8532
  0
LINE
  8
0
 10
5.42705
 20
32.8532
 11
5.77733
 21
32.7145
  0
LINE
  8
0
 10
5.77733
 20
32.7145
 11
6.10747
 21
32.533
  0
LINE
  8
0
 10
6.10747
 20
32.533
 11
6.41226
 21
32.3115
  0
LINE
  8
0
 10
6.41226
 20
32.3115
 11
6.6869
 21
32.0536
  0
LINE
  8
0
 10
6.6869
 20
32.0536
 11
6.92705
 21
31.7634
  0
LINE
  8
0
 10
6.92705
 20
31.7634
 11
7.12891
 21
31.4453
  0
LINE
  8
0
 10
7.12891
 20
31.4453
 11
7.28932
 21
31.1044
  0
LINE
  8
0
 10
7.28932
 20
31.1044
 11
7.40575
 21
30.7461
  0
LINE
  8
0
 10
7.40575
 20
30.7461
 11
7.47633
 21
30.376
  0
LINE
  8
0
 10
7.47633
 20
30.376
 11
7.5
 21
30
  0
LINE
  8
0
 10
7.5
 20
30
 11
7.47633
 21
29.624
  0
LINE
  8
0
 10
7.47633
 20
29.624
 11
7.40575
 21
29.2539
  0
LINE
  8
0
 10
7.40575
 20
29.2539
 11
7.28932
 21
28.8956
  0
LINE
  8
0
 10
7.28932
 20
28.8956
 11
7.12891
 21
28.5547
  0
LINE
  8
0
 10
7.12891
 20
28.5547
 11
6.92705
 21
28.2366
  0
LINE
  8
0
 10
6.92705
 20
28.2366
 11
6.6869
 21
27.9464
  0
LINE
  8
0
 10
6.6869
 20
27.9464
 11
6.41226
 21
27.6885
  0
LINE
  8
0
 10
6.41226
 20
27.6885
 11
6.10747
 21
27.467
  0
LINE
  8
0
 10
6.10747
 20
27.467
 11
5.77733
 21
27.2855
  0
LINE
  8
0
 10
5.77733
 20
27.2855
 11
5.42705
 21
27.1468
  0
LINE
  8
0
 10
5.42705
 20
27.1468
 11
5.06213
 21
27.0531
  0
LINE
  8
0
 10
5.06213
 20
27.0531
 11
4.68837
 21
27.0059
  0
LINE
  8
0
 10
4.68837
 20
27.0059
 11
4.31161
 21
27.0059
  0
LINE
  8
0
 10
-19.0628
 20
26.002
 11
-19.1874
 21
26.0177
  0
LINE
  8
0
 10
-19.1874
 20
26.0177
 11
-19.309
 21
26.049
  0
LINE
  8
0
 10
-19.309
 20
26.049
 11
-19.4258
 21
26.0952
  0
LINE
  8
0
 10
-19.4258
 20
26.0952
 11
-19.5358
 21
26.1557
  0
LINE
  8
0
 10
-19.5358
 20
26.1557
 11
-19.6374
 21
26.2295
  0
LINE
  8
0
 10
-19.6374
 20
26.2295
 11
-19.729
 21
26.3155
  0
LINE
  8
0
 10
-19.729
 20
26.3155
 11
-19.809
 21
26.4122
  0
LINE
  8
0
 10
-19.809
 20
26.4122
 11
-19.8763
 21
26.5182
  0
LINE
  8
0
 10
-19.8763
 20
26.5182
 11
-19.9298
 21
26.6319
  0
LINE
  8
0
 10
-19.9298
 20
26.6319
 11
-19.9686
 21
26.7513
  0
LINE
  8
0
 10
-19.9686
 20
26.7513
 11
-19.9921
 21
26.8747
  0
LINE
  8
0
 10
-19.9921
 20
26.8747
 11
-20
 21
27
  0
LINE
  8
0
 10
-20
 20
27
 11
-20
 21
28
  0
LINE
  8
0
 10
-20
 20
28
 11
-19.9921
 21
28.1253
  0
LINE
  8
0
 10
-19.9921
 20
28.1253
 11
-19.9686
 21
28.2487
  0
LINE
  8
0
 10
-19.9686
 20
28.2487
 11
-19.9298
 21
28.3681
  0
LINE
  8
0
 10
-19.9298
 20
28.3681
 11
-19.8763
 21
28.4818
  0
LINE
  8
0
 10
-19.8763
 20
28.4818
 11
-19.809
 21
28.5878
  0
LINE
  8
0
 10
-19.809
 20
28.5878
 11
-19.729
 21
28.6845
  0
LINE
  8
0
 10
-19.729
 20
28.6845
 11
-19.6374
 21
28.7705
  0
LINE
  8
0
 10
-19.6374
 20
28.7705
 11
-19.5358
 21
28.8443
  0
LINE
  8
0
 10
-19.5358
 20
28.8443
 11
-19.4258
 21
28.9048
  0
LINE
  8
0
 10
-19.4258
 20
28.9048
 11
-19.309
 21
28.951
  0
LINE
  8
0
 10
-19.309
 20
28.951
 11
-19.1874
 21
28.9823
  0
LINE
  8
0
 10
-19.1874
 20
28.9823
 11
-19.0628
 21
28.998
  0
LINE
  8
0
 10
-19.0628
 20
28.998
 11
-10.9372
 21
28.998
  0
LINE
  8
0
 10
-10.9372
 20
28.998
 11
-10.8126
 21
28.9823
  0
LINE
  8
0
 10
-10.8126
 20
28.9823
 11
-10.691
 21
28.951
  0
LINE
  8
0
 10
-10.691
 20
28.951
 11
-10.5742
 21
28.9048
  0
LINE
  8
0
 10
-10.5742
 20
28.9048
 11
-10.4642
 21
28.8443
  0
LINE
  8
0
 10
-10.4642
 20
28.8443
 11
-10.3626
 21
28.7705
  0
LINE
  8
0
 10
-10.3626
 20
28.7705
 11
-10.271
 21
28.6845
  0
LINE
  8
0
 10
-10.271
 20
28.6845
 11
-10.191
 21
28.5878
  0
LINE
  8
0
 10
-10.191
 20
28.5878
 11
-10.1237
 21
28.4818
  0
LINE
  8
0
 10
-10.1237
 20
28.4818
 11
-10.0702
 21
28.3681
  0
LINE
  8
0
 10
-10.0702
 20
28.3681
 11
-10.0314
 21
28.2487
  0
LINE
  8
0
 10
-10.0314
 20
28.2487
 11
-10.0079
 21
28.1253
  0
LINE
  8
0
 10
-10.0079
 20
28.1253
 11
-10
 21
28
  0
LINE
  8
0
 10
-10
 20
28
 11
-10
 21
27
  0
LINE
  8
0
 10
-10
 20
27
 11
-10.0079
 21
26.8747
  0
LINE
  8
0
 10
-10.0079
 20
26.8747
 11
-10.0314
 21
26.7513
  0
LINE
  8
0
 10
-10.0314
 20
26.7513
 11
-10.0702
 21
26.6319
  0
LINE
  8
0
 10
-10.0702
 20
26.6319
 11
-10.1237
 21
26.5182
  0
LINE
  8
0
 10
-10.1237
 20
26.5182
 11
-10.191
 21
26.4122
  0
LINE
  8
0
 10
-10.191
 20
26.4122
 11
-10.271
 21
26.3155
  0
LINE
  8
0
 10
-10.271
 20
26.3155
 11
-10.3626
 21
26.2295
  0
LINE
  8
0
 10
-10.3626
 20
26.2295
 11
-10.4642
 21
26.1557
  0
LINE
  8
0
 10
-10.4642
 20
26.1557
 11
-10.5742
 21
26.0952
  0
LINE
  8
0
 10
-10.5742
 20
26.0952
 11
-10.691
 21
26.049
  0
LINE
  8
0
 10
-10.691
 20
26.049
 11
-10.8126
 21
26.0177
  0
LINE
  8
0
 10
-10.8126
 20
26.0177
 11
-10.9372
 21
26.002
  0
LINE
  8
0
 10
-10.9372
 20
26.002
 11
-19.0628
 21
26.002
  0
LINE
  8
0
 10
-22.1564
 20
21.0123
 11
-22.279
 21
21.0397
  0
LINE
  8
0
 10
-22.279
 20
21.0397
 11
-22.3971
 21
21.0822
  0
LINE
  8
0
 10
-22.3971
 20
21.0822
 11
-22.509
 21
21.1393
  0
LINE
  8
0
 10
-22.509
 20
21.1393
 11
-22.6129
 21
21.2098
  0
LINE
  8
0
 10
-22.6129
 20
21.2098
 11
-22.7071
 21
21.2929
  0
LINE
  8
0
 10
-22.7071
 20
21.2929
 11
-22.7901
 21
21.3871
  0
LINE
  8
0
 10
-22.7901
 20
21.3871
 11
-22.8607
 21
21.491
  0
LINE
  8
0
 10
-22.8607
 20
21.491
 11
-22.9177
 21
21.6028
  0
LINE
  8
0
 10
-22.9177
 20
21.6028
 11
-22.9603
 21
21.721
  0
LINE
  8
0
 10
-22.9603
 20
21.721
 11
-22.9877
 21
21.8436
  0
LINE
  8
0
 10
-22.9877
 20
21.8436
 11
-22.9995
 21
21.9686
  0
LINE
  8
0
 10
-22.9995
 20
21.9686
 11
-22.9956
 21
22.0941
  0
LINE
  8
0
 10
-22.9956
 20
22.0941
 11
-22.9759
 21
22.2181
  0
LINE
  8
0
 10
-22.9759
 20
22.2181
 11
-22.9409
 21
22.3387
  0
LINE
  8
0
 10
-22.9409
 20
22.3387
 11
-22.891
 21
22.454
  0
LINE
  8
0
 10
-22.891
 20
22.454
 11
-22.8271
 21
22.5621
  0
LINE
  8
0
 10
-22.8271
 20
22.5621
 11
-22.7501
 21
22.6613
  0
LINE
  8
0
 10
-22.7501
 20
22.6613
 11
-22.6613
 21
22.7501
  0
LINE
  8
0
 10
-22.6613
 20
22.7501
 11
-22.5621
 21
22.8271
  0
LINE
  8
0
 10
-22.5621
 20
22.8271
 11
-22.454
 21
22.891
  0
LINE
  8
0
 10
-22.454
 20
22.891
 11
-22.3387
 21
22.9409
  0
LINE
  8
0
 10
-22.3387
 20
22.9409
 11
-22.2181
 21
22.9759
  0
LINE
  8
0
 10
-22.2181
 20
22.9759
 11
-22.0941
 21
22.9956
  0
LINE
  8
0
 10
-22.0941
 20
22.9956
 11
-21.9686
 21
22.9995
  0
LINE
  8
0
 10
-21.9686
 20
22.9995
 11
-21.8436
 21
22.9877
  0
LINE
  8
0
 10
-21.8436
 20
22.9877
 11
-21.721
 21
22.9603
  0
LINE
  8
0
 10
-21.721
 20
22.9603
 11
-21.6028
 21
22.9177
  0
LINE
  8
0
 10
-21.6028
 20
22.9177
 11
-21.491
 21
22.8607
  0
LINE
  8
0
 10
-21.491
 20
22.8607
 11
-21.3871
 21
22.7901
  0
LINE
  8
0
 10
-21.3871
 20
22.7901
 11
-21.2929
 21
22.7071
  0
LINE
  8
0
 10
-21.2929
 20
22.7071
 11
-21.2098
 21
22.6129
  0
LINE
  8
0
 10
-21.2098
 20
22.6129
 11
-21.1393
 21
22.509
  0
LINE
  8
0
 10
-21.1393
 20
22.509
 11
-21.0822
 21
22.3971
  0
LINE
  8
0
 10
-21.0822
 20
22.3971
 11
-21.0397
 21
22.279
  0
LINE
  8
0
 10
-21.0397
 20
22.279
 11
-21.0123
 21
22.1564
  0
LINE
  8
0
 10
-21.0123
 20
22.1564
 11
-21.0005
 21
22.0314
  0
LINE
  8
0
 10
-21.0005
 20
22.0314
 11
-21.0044
 21
21.9059
  0
LINE
  8
0
 10
-21.0044
 20
21.9059
 11
-21.0241
 21
21.7818
  0
LINE
  8
0
 10
-21.0241
 20
21.7818
 11
-21.0591
 21
21.6613
  0
LINE
  8
0
 10
-21.0591
 20
21.6613
 11
-21.109
 21
21.546
  0
LINE
  8
0
 10
-21.109
 20
21.546
 11
-21.1729
 21
21.4379
  0
LINE
  8
0
 10
-21.1729
 20
21.4379
 11
-21.2499
 21
21.3387
  0
LINE
  8
0
 10
-21.2499
 20
21.3387
 11
-21.3387
 21
21.2499
  0
LINE
  8
0
 10
-21.3387
 20
21.2499
 11
-21.4379
 21
21.1729
  0
LINE
  8
0
 10
-21.4379
 20
21.1729
 11
-21.546
 21
21.109
  0
LINE
  8
0
 10
-21.546
 20
21.109
 11
-21.6613
 21
21.0591
  0
LINE
  8
0
 10
-21.6613
 20
21.0591
 11
-21.7818
 21
21.0241
  0
LINE
  8
0
 10
-21.7818
 20
21.0241
 11
-21.9059
 21
21.0044
  0
LINE
  8
0
 10
-21.9059
 20
21.0044
 11
-22.0314
 21
21.0005
  0
LINE
  8
0
 10
-22.0314
 20
21.0005
 11
-22.1564
 21
21.0123
  0
LINE
  8
0
 10
21.9059
 20
21.0044
 11
21.7818
 21
21.0241
  0
LINE
  8
0
 10
21.7818
 20
21.0241
 11
21.6613
 21
21.0591
  0
LINE
  8
0
 10
21.6613
 20
21.0591
 11
21.546
 21
21.109
  0
LINE
  8
0
 10
21.546
 20
21.109
 11
21.4379
 21
21.1729
  0
LINE
  8
0
 10
21.4379
 20
21.1729
 11
21.3387
 21
21.2499
  0
LINE
  8
0
 10
21.3387
 20
21.2499
 11
21.2499
 21
21.3387
  0
LINE
  8
0
 10
21.2499
 20
21.3387
 11
21.1729
 21
21.4379
  0
LINE
  8
0
 10
21.1729
 20
21.4379
 11
21.109
 21
21.546
  0
LINE
  8
0
 10
21.109
 20
21.546
 11
21.0591
 21
21.6613
  0
LINE
  8
0
 10
21.0591
 20
21.6613
 11
21.0241
 21
21.7818
  0
LINE
  8
0
 10
21.0241
 20
21.7818
 11
21.0044
 21
21.9059
  0
LINE
  8
0
 10
21.0044
 20
21.9059
 11
21.0005
 21
22.0314
  0
LINE
  8
0
 10
21.0005
 20
22.0314
 11
21.0123
 21
22.1564
  0
LINE
  8
0
 10
21.0123
 20
22.1564
 11
21.0397
 21
22.279
  0
LINE
  8
0
 10
21.0397
 20
22.279
 11
21.0822
 21
22.3971
  0
LINE
  8
0
 10
21.0822
 20
22.3971
 11
21.1393
 21
22.509
  0
LINE
  8
0
 10
21.1393
 20
22.509
 11
21.2098
 21
22.6129
  0
LINE
  8
0
 10
21.2098
 20
22.6129
 11
21.2929
 21
22.7071
  0
LINE
  8
0
 10
21.2929
 20
22.7071
 11
21.3871
 21
22.7901
  0
LINE
  8
0
 10
21.3871
 20
22.7901
 11
21.491
 21
22.8607
  0
LINE
  8
0
 10
21.491
 20
22.8607
 11
21.6028
 21
22.9177
  0
LINE
  8
0
 10
21.6028
 20
22.9177
 11
21.721
 21
22.9603
  0
LINE
  8
0
 10
21.721
 20
22.9603
 11
21.8436
 21
22.9877
  0
LINE
  8
0
 10
21.8436
 20
22.9877
 11
21.9686
 21
22.9995
  0
LINE
  8
0
 10
21.9686
 20
22.9995
 11
22.0941
 21
22.9956
  0
LINE
  8
0
 10
22.0941
 20
22.9956
 11
22.2181
 21
22.9759
  0
LINE
  8
0
 10
22.2181
 20
22.9759
 11
22.3387
 21
22.9409
  0
LINE
  8
0
 10
22.3387
 20
22.9409
 11
22.454
 21
22.891
  0
LINE
  8
0
 10
22.454
 20
22.891
 11
22.5621
 21
22.8271
  0
LINE
  8
0
 10
22.5621
 20
22.8271
 11
22.6613
 21
22.7501
  0
LINE
  8
0
 10
22.6613
 20
22.7501
 11
22.7501
 21
22.6613
  0
LINE
  8
0
 10
22.7501
 20
22.6613
 11
22.8271
 21
22.5621
  0
LINE
  8
0
 10
22.8271
 20
22.5621
 11
22.891
 21
22.454
  0
LINE
  8
0
 10
22.891
 20
22.454
 11
22.9409
 21
22.3387
  0
LINE
  8
0
 10
22.9409
 20
22.3387
 11
22.9759
 21
22.2181
  0
LINE
  8
0
 10
22.9759
 20
22.2181
 11
22.9956
 21
22.0941
  0
LINE
  8
0
 10
22.9956
 20
22.0941
 11
22.9995
 21
21.9686
  0
LINE
  8
0
 10
22.9995
 20
21.9686
 11
22.9877
 21
21.8436
  0
LINE
  8
0
 10
22.9877
 20
21.8436
 11
22.9603
 21
21.721
  0
LINE
  8
0
 10
22.9603
 20
21.721
 11
22.9177
 21
21.6028
  0
LINE
  8
0
 10
22.9177
 20
21.6028
 11
22.8607
 21
21.491
  0
LINE
  8
0
 10
22.8607
 20
21.491
 11
22.7901
 21
21.3871
  0
LINE
  8
0
 10
22.7901
 20
21.3871
 11
22.7071
 21
21.2929
  0
LINE
  8
0
 10
22.7071
 20
21.2929
 11
22.6129
 21
21.2098
  0
LINE
  8
0
 10
22.6129
 20
21.2098
 11
22.509
 21
21.1393
  0
LINE
  8
0
 10
22.509
 20
21.1393
 11
22.3971
 21
21.0822
  0
LINE
  8
0
 10
22.3971
 20
21.0822
 11
22.279
 21
21.0397
  0
LINE
  8
0
 10
22.279
 20
21.0397
 11
22.1564
 21
21.0123
  0
LINE
  8
0
 10
22.1564
 20
21.0123
 11
22.0314
 21
21.0005
  0
LINE
  8
0
 10
22.0314
 20
21.0005
 11
21.9059
 21
21.0044
  0
LINE
  8
0
 10
-15.0628
 20
12.002
 11
-15.1874
 21
12.0177
  0
LINE
  8
0
 10
-15.1874
 20
12.0177
 11
-15.309
 21
12.0489
  0
LINE
  8
0
 10
-15.309
 20
12.0489
 11
-15.4258
 21
12.0952
  0
LINE
  8
0
 10
-15.4258
 20
12.0952
 11
-15.5358
 21
12.1557
  0
LINE
  8
0
 10
-15.5358
 20
12.1557
 11
-15.6374
 21
12.2295
  0
LINE
  8
0
 10
-15.6374
 20
12.2295
 11
-15.729
 21
12.3154
  0
LINE
  8
0
 10
-15.729
 20
12.3154
 11
-15.809
 21
12.4122
  0
LINE
  8
0
 10
-15.809
 20
12.4122
 11
-15.8763
 21
12.5182
  0
LINE
  8
0
 10
-15.8763
 20
12.5182
 11
-15.9298
 21
12.6319
  0
LINE
  8
0
 10
-15.9298
 20
12.6319
 11
-15.9686
 21
12.7513
  0
LINE
  8
0
 10
-15.9686
 20
12.7513
 11
-15.9921
 21
12.8747
  0
LINE
  8
0
 10
-15.9921
 20
12.8747
 11
-16
 21
13
  0
LINE
  8
0
 10
-16
 20
13
 11
-15.9921
 21
13.1253
  0
LINE
  8
0
 10
-15.9921
 20
13.1253
 11
-15.9686
 21
13.2487
  0
LINE
  8
0
 10
-15.9686
 20
13.2487
 11
-15.9298
 21
13.3681
  0
LINE
  8
0
 10
-15.9298
 20
13.3681
 11
-15.8763
 21
13.4818
  0
LINE
  8
0
 10
-15.8763
 20
13.4818
 11
-15.809
 21
13.5878
  0
LINE
  8
0
 10
-15.809
 20
13.5878
 11
-15.729
 21
13.6845
  0
LINE
  8
0
 10
-15.729
 20
13.6845
 11
-15.6374
 21
13.7705
  0
LINE
  8
0
 10
-15.6374
 20
13.7705
 11
-15.5358
 21
13.8443
  0
LINE
  8
0
 10
-15.5358
 20
13.8443
 11
-15.4258
 21
13.9048
  0
LINE
  8
0
 10
-15.4258
 20
13.9048
 11
-15.309
 21
13.951
  0
LINE
  8
0
 10
-15.309
 20
13.951
 11
-15.1874
 21
13.9823
  0
LINE
  8
0
 10
-15.1874
 20
13.9823
 11
-15.0628
 21
13.998
  0
LINE
  8
0
 10
-15.0628
 20
13.998
 11
-14.9372
 21
13.998
  0
LINE
  8
0
 10
-14.9372
 20
13.998
 11
-14.8126
 21
13.9823
  0
LINE
  8
0
 10
-14.8126
 20
13.9823
 11
-14.691
 21
13.951
  0
LINE
  8
0
 10
-14.691
 20
13.951
 11
-14.5742
 21
13.9048
  0
LINE
  8
0
 10
-14.5742
 20
13.9048
 11
-14.4642
 21
13.8443
  0
LINE
  8
0
 10
-14.4642
 20
13.8443
 11
-14.3626
 21
13.7705
  0
LINE
  8
0
 10
-14.3626
 20
13.7705
 11
-14.271
 21
13.6845
  0
LINE
  8
0
 10
-14.271
 20
13.6845
 11
-14.191
 21
13.5878
  0
LINE
  8
0
 10
-14.191
 20
13.5878
 11
-14.1237
 21
13.4818
  0
LINE
  8
0
 10
-14.1237
 20
13.4818
 11
-14.0702
 21
13.3681
  0
LINE
  8
0
 10
-14.0702
 20
13.3681
 11
-14.0314
 21
13.2487
  0
LINE
  8
0
 10
-14.0314
 20
13.2487
 11
-14.0079
 21
13.1253
  0
LINE
  8
0
 10
-14.0079
 20
13.1253
 11
-14
 21
13
  0
LINE
  8
0
 10
-14
 20
13
 11
-14.0079
 21
12.8747
  0
LINE
  8
0
 10
-14.0079
 20
12.8747
 11
-14.0314
 21
12.7513
  0
LINE
  8
0
 10
-14.0314
 20
12.7513
 11
-14.0702
 21
12.6319
  0
LINE
  8
0
 10
-14.0702
 20
12.6319
 11
-14.1237
 21
12.5182
  0
LINE
  8
0
 10
-14.1237
 20
12.5182
 11
-14.191
 21
12.4122
  0
LINE
  8
0
 10
-14.191
 20
12.4122
 11
-14.271
 21
12.3154
  0
LINE
  8
0
 10
-14.271
 20
12.3154
 11
-14.3626
 21
12.2295
  0
LINE
  8
0
 10
-14.3626
 20
12.2295
 11
-14.4642
 21
12.1557
  0
LINE
  8
0
 10
-14.4642
 20
12.1557
 11
-14.5742
 21
12.0952
  0
LINE
  8
0
 10
-14.5742
 20
12.0952
 11
-14.691
 21
12.0489
  0
LINE
  8
0
 10
-14.691
 20
12.0489
 11
-14.8126
 21
12.0177
  0
LINE
  8
0
 10
-14.8126
 20
12.0177
 11
-14.9372
 21
12.002
  0
LINE
  8
0
 10
-14.9372
 20
12.002
 11
-15.0628
 21
12.002
  0
LINE
  8
0
 10
-30.05
 20
-6.49998
 11
-30.238
 21
-6.48814
  0
LINE
  8
0
 10
-30.238
 20
-6.48814
 11
-30.423
 21
-6.45285
  0
LINE
  8
0
 10
-30.423
 20
-6.45285
 11
-30.6022
 21
-6.39464
  0
LINE
  8
0
 10
-30.6022
 20
-6.39464
 11
-30.7726
 21
-6.31444
  0
LINE
  8
0
 10
-30.7726
 20
-6.31444
 11
-30.9317
 21
-6.2135
  0
LINE
  8
0
 10
-30.9317
 20
-6.2135
 11
-31.0768
 21
-6.09343
  0
LINE
  8
0
 10
-31.0768
 20
-6.09343
 11
-31.2057
 21
-5.95612
  0
LINE
  8
0
 10
-31.2057
 20
-5.95612
 11
-31.3165
 21
-5.80371
  0
LINE
  8
0
 10
-31.3165
 20
-5.80371
 11
-31.4072
 21
-5.63864
  0
LINE
  8
0
 10
-31.4072
 20
-5.63864
 11
-31.4766
 21
-5.4635
  0
LINE
  8
0
 10
-31.4766
 20
-5.4635
 11
-31.5234
 21
-5.28105
  0
LINE
  8
0
 10
-31.5234
 20
-5.28105
 11
-31.547
 21
-5.09416
  0
LINE
  8
0
 10
-31.547
 20
-5.09416
 11
-31.547
 21
1.93567
  0
LINE
  8
0
 10
-31.547
 20
1.93567
 11
-31.7634
 21
2.07294
  0
LINE
  8
0
 10
-31.7634
 20
2.07294
 11
-32.0536
 21
2.31308
  0
LINE
  8
0
 10
-32.0536
 20
2.31308
 11
-32.3115
 21
2.58772
  0
LINE
  8
0
 10
-32.3115
 20
2.58772
 11
-32.533
 21
2.89252
  0
LINE
  8
0
 10
-32.533
 20
2.89252
 11
-32.7145
 21
3.22266
  0
LINE
  8
0
 10
-32.7145
 20
3.22266
 11
-32.8532
 21
3.57294
  0
LINE
  8
0
 10
-32.8532
 20
3.57294
 11
-32.9469
 21
3.93785
  0
LINE
  8
0
 10
-32.9469
 20
3.93785
 11
-32.9941
 21
4.31161
  0
LINE
  8
0
 10
-32.9941
 20
4.31161
 11
-32.9941
 21
4.68837
  0
LINE
  8
0
 10
-32.9941
 20
4.68837
 11
-32.9469
 21
5.06213
  0
LINE
  8
0
 10
-32.9469
 20
5.06213
 11
-32.8532
 21
5.42705
  0
LINE
  8
0
 10
-32.8532
 20
5.42705
 11
-32.7145
 21
5.77733
  0
LINE
  8
0
 10
-32.7145
 20
5.77733
 11
-32.533
 21
6.10747
  0
LINE
  8
0
 10
-32.533
 20
6.10747
 11
-32.3115
 21
6.41226
  0
LINE
  8
0
 10
-32.3115
 20
6.41226
 11
-32.0536
 21
6.6869
  0
LINE
  8
0
 10
-32.0536
 20
6.6869
 11
-31.7634
 21
6.92705
  0
LINE
  8
0
 10
-31.7634
 20
6.92705
 11
-31.4453
 21
7.12891
  0
LINE
  8
0
 10
-31.4453
 20
7.12891
 11
-31.1044
 21
7.28932
  0
LINE
  8
0
 10
-31.1044
 20
7.28932
 11
-30.7461
 21
7.40575
  0
LINE
  8
0
 10
-30.7461
 20
7.40575
 11
-30.376
 21
7.47633
  0
LINE
  8
0
 10
-30.376
 20
7.47633
 11
-30
 21
7.5
  0
LINE
  8
0
 10
-30
 20
7.5
 11
-29.624
 21
7.47633
  0
LINE
  8
0
 10
-29.624
 20
7.47633
 11
-29.2539
 21
7.40575
  0
LINE
  8
0
 10
-29.2539
 20
7.40575
 11
-28.8956
 21
7.28932
  0
LINE
  8
0
 10
-28.8956
 20
7.28932
 11
-28.5547
 21
7.12891
  0
LINE
  8
0
 10
-28.5547
 20
7.12891
 11
-28.2366
 21
6.92705
  0
LINE
  8
0
 10
-28.2366
 20
6.92705
 11
-27.9464
 21
6.6869
  0
LINE
  8
0
 10
-27.9464
 20
6.6869
 11
-27.6885
 21
6.41226
  0
LINE
  8
0
 10
-27.6885
 20
6.41226
 11
-27.467
 21
6.10747
  0
LINE
  8
0
 10
-27.467
 20
6.10747
 11
-27.2855
 21
5.77733
  0
LINE
  8
0
 10
-27.2855
 20
5.77733
 11
-27.1468
 21
5.42705
  0
LINE
  8
0
 10
-27.1468
 20
5.42705
 11
-27.0531
 21
5.06213
  0
LINE
  8
0
 10
-27.0531
 20
5.06213
 11
-27.0059
 21
4.68837
  0
LINE
  8
0
 10
-27.0059
 20
4.68837
 11
-27.0059
 21
4.31161
  0
LINE
  8
0
 10
-27.0059
 20
4.31161
 11
-27.0531
 21
3.93785
  0
LINE
  8
0
 10
-27.0531
 20
3.93785
 11
-27.1468
 21
3.57294
  0
LINE
  8
0
 10
-27.1468
 20
3.57294
 11
-27.2855
 21
3.22266
  0
LINE
  8
0
 10
-27.2855
 20
3.22266
 11
-27.467
 21
2.89252
  0
LINE
  8
0
 10
-27.467
 20
2.89252
 11
-27.6885
 21
2.58772
  0
LINE
  8
0
 10
-27.6885
 20
2.58772
 11
-27.9464
 21
2.31308
  0
LINE
  8
0
 10
-27.9464
 20
2.31308
 11
-28.2366
 21
2.07294
  0
LINE
  8
0
 10
-28.2366
 20
2.07294
 11
-28.453
 21
1.93567
  0
LINE
  8
0
 10
-28.453
 20
1.93567
 11
-28.453
 21
-5.09416
  0
LINE
  8
0
 10
-28.453
 20
-5.09416
 11
-28.4766
 21
-5.28105
  0
LINE
  8
0
 10
-28.4766
 20
-5.28105
 11
-28.5234
 21
-5.4635
  0
LINE
  8
0
 10
-28.5234
 20
-5.4635
 11
-28.5928
 21
-5.63864
  0
LINE
  8
0
 10
-28.5928
 20
-5.63864
 11
-28.6835
 21
-5.80371
  0
LINE
  8
0
 10
-28.6835
 20
-5.80371
 11
-28.7943
 21
-5.95612
  0
LINE
  8
0
 10
-28.7943
 20
-5.95612
 11
-28.9232
 21
-6.09343
  0
LINE
  8
0
 10
-28.9232
 20
-6.09343
 11
-29.0683
 21
-6.2135
  0
LINE
  8
0
 10
-29.0683
 20
-6.2135
 11
-29.2274
 21
-6.31444
  0
LINE
  8
0
 10
-29.2274
 20
-6.31444
 11
-29.3978
 21
-6.39464
  0
LINE
  8
0
 10
-29.3978
 20
-6.39464
 11
-29.577
 21
-6.45285
  0
LINE
  8
0
 10
-29.577
 20
-6.45285
 11
-29.762
 21
-6.48814
  0
LINE
  8
0
 10
-29.762
 20
-6.48814
 11
-29.95
 21
-6.49998
  0
LINE
  8
0
 10
-29.95
 20
-6.49998
 11
-30.05
 21
-6.49998
  0
LINE
  8
0
 10
29.624
 20
-7.47633
 11
29.2539
 21
-7.40575
  0
LINE
  8
0
 10
29.2539
 20
-7.40575
 11
28.8956
 21
-7.28932
  0
LINE
  8
0
 10
28.8956
 20
-7.28932
 11
28.5547
 21
-7.12891
  0
LINE
  8
0
 10
28.5547
 20
-7.12891
 11
28.2366
 21
-6.92705
  0
LINE
  8
0
 10
28.2366
 20
-6.92705
 11
27.9464
 21
-6.6869
  0
LINE
  8
0
 10
27.9464
 20
-6.6869
 11
27.6885
 21
-6.41226
  0
LINE
  8
0
 10
27.6885
 20
-6.41226
 11
27.467
 21
-6.10747
  0
LINE
  8
0
 10
27.467
 20
-6.10747
 11
27.2855
 21
-5.77733
  0
LINE
  8
0
 10
27.2855
 20
-5.77733
 11
27.1468
 21
-5.42705
  0
LINE
  8
0
 10
27.1468
 20
-5.42705
 11
27.0531
 21
-5.06213
  0
LINE
  8
0
 10
27.0531
 20
-5.06213
 11
27.0059
 21
-4.68837
  0
LINE
  8
0
 10
27.0059
 20
-4.68837
 11
27.0059
 21
-4.31161
  0
LINE
  8
0
 10
27.0059
 20
-4.31161
 11
27.0531
 21
-3.93785
  0
LINE
  8
0
 10
27.0531
 20
-3.93785
 11
27.1468
 21
-3.57294
  0
LINE
  8
0
 10
27.1468
 20
-3.57294
 11
27.2855
 21
-3.22266
  0
LINE
  8
0
 10
27.2855
 20
-3.22266
 11
27.467
 21
-2.89252
  0
LINE
  8
0
 10
27.467
 20
-2.89252
 11
27.6885
 21
-2.58772
  0
LINE
  8
0
 10
27.6885
 20
-2.58772
 11
27.9464
 21
-2.31308
  0
LINE
  8
0
 10
27.9464
 20
-2.31308
 11
28.2366
 21
-2.07294
  0
LINE
  8
0
 10
28.2366
 20
-2.07294
 11
28.453
 21
-1.93567
  0
LINE
  8
0
 10
28.453
 20
-1.93567
 11
28.453
 21
5.09416
  0
LINE
  8
0
 10
28.453
 20
5.09416
 11
28.4766
 21
5.28105
  0
LINE
  8
0
 10
28.4766
 20
5.28105
 11
28.5234
 21
5.4635
  0
LINE
  8
0
 10
28.5234
 20
5.4635
 11
28.5928
 21
5.63864
  0
LINE
  8
0
 10
28.5928
 20
5.63864
 11
28.6835
 21
5.80371
  0
LINE
  8
0
 10
28.6835
 20
5.80371
 11
28.7943
 21
5.95612
  0
LINE
  8
0
 10
28.7943
 20
5.95612
 11
28.9232
 21
6.09343
  0
LINE
  8
0
 10
28.9232
 20
6.09343
 11
29.0683
 21
6.2135
  0
LINE
  8
0
 10
29.0683
 20
6.2135
 11
29.2274
 21
6.31444
  0
LINE
  8
0
 10
29.2274
 20
6.31444
 11
29.3978
 21
6.39464
  0
LINE
  8
0
 10
29.3978
 20
6.39464
 11
29.577
 21
6.45285
  0
LINE
  8
0
 10
29.577
 20
6.45285
 11
29.762
 21
6.48814
  0
LINE
  8
0
 10
29.762
 20
6.48814
 11
29.95
 21
6.49998
  0
LINE
  8
0
 10
29.95
 20
6.49998
 11
30.05
 21
6.49998
  0
LINE
  8
0
 10
30.05
 20
6.49998
 11
30.238
 21
6.48814
  0
LINE
  8
0
 10
30.238
 20
6.48814
 11
30.423
 21
6.45285
  0
LINE
  8
0
 10
30.423
 20
6.45285
 11
30.6022
 21
6.39464
  0
LINE
  8
0
 10
30.6022
 20
6.39464
 11
30.7726
 21
6.31444
  0
LINE
  8
0
 10
30.7726
 20
6.31444
 11
30.9317
 21
6.2135
  0
LINE
  8
0
 10
30.9317
 20
6.2135
 11
31.0768
 21
6.09343
  0
LINE
  8
0
 10
31.0768
 20
6.09343
 11
31.2057
 21
5.95612
  0
LINE
  8
0
 10
31.2057
 20
5.95612
 11
31.3165
 21
5.80371
  0
LINE
  8
0
 10
31.3165
 20
5.80371
 11
31.4072
 21
5.63864
  0
LINE
  8
0
 10
31.4072
 20
5.63864
 11
31.4766
 21
5.4635
  0
LINE
  8
0
 10
31.4766
 20
5.4635
 11
31.5234
 21
5.28105
  0
LINE
  8
0
 10
31.5234
 20
5.28105
 11
31.547
 21
5.09416
  0
LINE
  8
0
 10
31.547
 20
5.09416
 11
31.547
 21
-1.93567
  0
LINE
  8
0
 10
31.547
 20
-1.93567
 11
31.7634
 21
-2.07294
  0
LINE
  8
0
 10
31.7634
 20
-2.07294
 11
32.0536
 21
-2.31308
  0
LINE
  8
0
 10
32.0536
 20
-2.31308
 11
32.3115
 21
-2.58772
  0
LINE
  8
0
 10
32.3115
 20
-2.58772
 11
32.533
 21
-2.89252
  0
LINE
  8
0
 10
32.533
 20
-2.89252
 11
32.7145
 21
-3.22266
  0
LINE
  8
0
 10
32.7145
 20
-3.22266
 11
32.8532
 21
-3.57294
  0
LINE
  8
0
 10
32.8532
 20
-3.57294
 11
32.9469
 21
-3.93785
  0
LINE
  8
0
 10
32.9469
 20
-3.93785
 11
32.9941
 21
-4.31161
  0
LINE
  8
0
 10
32.9941
 20
-4.31161
 11
32.9941
 21
-4.68837
  0
LINE
  8
0
 10
32.9941
 20
-4.68837
 11
32.9469
 21
-5.06213
  0
LINE
  8
0
 10
32.9469
 20
-5.06213
 11
32.8532
 21
-5.42705
  0
LINE
  8
0
 10
32.8532
 20
-5.42705
 11
32.7145
 21
-5.77733
  0
LINE
  8
0
 10
32.7145
 20
-5.77733
 11
32.533
 21
-6.10747
  0
LINE
  8
0
 10
32.533
 20
-6.10747
 11
32.3115
 21
-6.41226
  0
LINE
  8
0
 10
32.3115
 20
-6.41226
 11
32.0536
 21
-6.6869
  0
LINE
  8
0
 10
32.0536
 20
-6.6869
 11
31.7634
 21
-6.92705
  0
LINE
  8
0
 10
31.7634
 20
-6.92705
 11
31.4453
 21
-7.12891
  0
LINE
  8
0
 10
31.4453
 20
-7.12891
 11
31.1044
 21
-7.28932
  0
LINE
  8
0
 10
31.1044
 20
-7.28932
 11
30.7461
 21
-7.40575
  0
LINE
  8
0
 10
30.7461
 20
-7.40575
 11
30.376
 21
-7.47633
  0
LINE
  8
0
 10
30.376
 20
-7.47633
 11
30
 21
-7.5
  0
LINE
  8
0
 10
30
 20
-7.5
 11
29.624
 21
-7.47633
  0
LINE
  8
0
 10
-22.0941
 20
-22.9956
 11
-22.2181
 21
-22.9759
  0
LINE
  8
0
 10
-22.2181
 20
-22.9759
 11
-22.3387
 21
-22.9409
  0
LINE
  8
0
 10
-22.3387
 20
-22.9409
 11
-22.454
 21
-22.891
  0
LINE
  8
0
 10
-22.454
 20
-22.891
 11
-22.5621
 21
-22.8271
  0
LINE
  8
0
 10
-22.5621
 20
-22.8271
 11
-22.6613
 21
-22.7501
  0
LINE
  8
0
 10
-22.6613
 20
-22.7501
 11
-22.7501
 21
-22.6613
  0
LINE
  8
0
 10
-22.7501
 20
-22.6613
 11
-22.8271
 21
-22.5621
  0
LINE
  8
0
 10
-22.8271
 20
-22.5621
 11
-22.891
 21
-22.454
  0
LINE
  8
0
 10
-22.891
 20
-22.454
 11
-22.9409
 21
-22.3387
  0
LINE
  8
0
 10
-22.9409
 20
-22.3387
 11
-22.9759
 21
-22.2181
  0
LINE
  8
0
 10
-22.9759
 20
-22.2181
 11
-22.9956
 21
-22.0941
  0
LINE
  8
0
 10
-22.9956
 20
-22.0941
 11
-22.9995
 21
-21.9686
  0
LINE
  8
0
 10
-22.9995
 20
-21.9686
 11
-22.9877
 21
-21.8436
  0
LINE
  8
0
 10
-22.9877
 20
-21.8436
 11
-22.9603
 21
-21.721
  0
LINE
  8
0
 10
-22.9603
 20
-21.721
 11
-22.9177
 21
-21.6028
  0
LINE
  8
0
 10
-22.9177
 20
-21.6028
 11
-22.8607
 21
-21.491
  0
LINE
  8
0
 10
-22.8607
 20
-21.491
 11
-22.7901
 21
-21.3871
  0
LINE
  8
0
 10
-22.7901
 20
-21.3871
 11
-22.7071
 21
-21.2929
  0
LINE
  8
0
 10
-22.7071
 20
-21.2929
 11
-22.6129
 21
-21.2098
  0
LINE
  8
0
 10
-22.6129
 20
-21.2098
 11
-22.509
 21
-21.1393
  0
LINE
  8
0
 10
-22.509
 20
-21.1393
 11
-22.3971
 21
-21.0822
  0
LINE
  8
0
 10
-22.3971
 20
-21.0822
 11
-22.279
 21
-21.0397
  0
LINE
  8
0
 10
-22.279
 20
-21.0397
 11
-22.1564
 21
-21.0123
  0
LINE
  8
0
 10
-22.1564
 20
-21.0123
 11
-22.0314
 21
-21.0005
  0
LINE
  8
0
 10
-22.0314
 20
-21.0005
 11
-21.9059
 21
-21.0044
  0
LINE
  8
0
 10
-21.9059
 20
-21.0044
 11
-21.7818
 21
-21.0241
  0
LINE
  8
0
 10
-21.7818
 20
-21.0241
 11
-21.6613
 21
-21.0591
  0
LINE
  8
0
 10
-21.6613
 20
-21.0591
 11
-21.546
 21
-21.109
  0
LINE
  8
0
 10
-21.546
 20
-21.109
 11
-21.4379
 21
-21.1729
  0
LINE
  8
0
 10
-21.4379
 20
-21.1729
 11
-21.3387
 21
-21.2499
  0
LINE
  8
0
 10
-21.3387
 20
-21.2499
 11
-21.2499
 21
-21.3387
  0
LINE
  8
0
 10
-21.2499
 20
-21.3387
 11
-21.1729
 21
-21.4379
  0
LINE
  8
0
 10
-21.1729
 20
-21.4379
 11
-21.109
 21
-21.546
  0
LINE
  8
0
 10
-21.109
 20
-21.546
 11
-21.0591
 21
-21.6613
  0
LINE
  8
0
 10
-21.0591
 20
-21.6613
 11
-21.0241
 21
-21.7818
  0
LINE
  8
0
 10
-21.0241
 20
-21.7818
 11
-21.0044
 21
-21.9059
  0
LINE
  8
0
 10
-21.0044
 20
-21.9059
 11
-21.0005
 21
-22.0314
  0
LINE
  8
0
 10
-21.0005
 20
-22.0314
 11
-21.0123
 21
-22.1564
  0
LINE
  8
0
 10
-21.0123
 20
-22.1564
 11
-21.0397
 21
-22.279
  0
LINE
  8
0
 10
-21.0397
 20
-22.279
 11
-21.0822
 21
-22.3971
  0
LINE
  8
0
 10
-21.0822
 20
-22.3971
 11
-21.1393
 21
-22.509
  0
LINE
  8
0
 10
-21.1393
 20
-22.509
 11
-21.2098
 21
-22.6129
  0
LINE
  8
0
 10
-21.2098
 20
-22.6129
 11
-21.2929
 21
-22.7071
  0
LINE
  8
0
 10
-21.2929
 20
-22.7071
 11
-21.3871
 21
-22.7901
  0
LINE
  8
0
 10
-21.3871
 20
-22.7901
 11
-21.491
 21
-22.8607
  0
LINE
  8
0
 10
-21.491
 20
-22.8607
 11
-21.6028
 21
-22.9177
  0
LINE
  8
0
 10
-21.6028
 20
-22.9177
 11
-21.721
 21
-22.9603
  0
LINE
  8
0
 10
-21.721
 20
-22.9603
 11
-21.8436
 21
-22.9877
  0
LINE
  8
0
 10
-21.8436
 20
-22.9877
 11
-21.9686
 21
-22.9995
  0
LINE
  8
0
 10
-21.9686
 20
-22.9995
 11
-22.0941
 21
-22.9956
  0
LINE
  8
0
 10
21.8436
 20
-22.9877
 11
21.721
 21
-22.9603
  0
LINE
  8
0
 10
21.721
 20
-22.9603
 11
21.6028
 21
-22.9177
  0
LINE
  8
0
 10
21.6028
 20
-22.9177
 11
21.491
 21
-22.8607
  0
LINE
  8
0
 10
21.491
 20
-22.8607
 11
21.3871
 21
-22.7901
  0
LINE
  8
0
 10
21.3871
 20
-22.7901
 11
21.2929
 21
-22.7071
  0
LINE
  8
0
 10
21.2929
 20
-22.7071
 11
21.2098
 21
-22.6129
  0
LINE
  8
0
 10
21.2098
 20
-22.6129
 11
21.1393
 21
-22.509
  0
LINE
  8
0
 10
21.1393
 20
-22.509
 11
21.0822
 21
-22.3971
  0
LINE
  8
0
 10
21.0822
 20
-22.3971
 11
21.0397
 21
-22.279
  0
LINE
  8
0
 10
21.0397
 20
-22.279
 11
21.0123
 21
-22.1564
  0
LINE
  8
0
 10
21.0123
 20
-22.1564
 11
21.0005
 21
-22.0314
  0
LINE
  8
0
 10
21.0005
 20
-22.0314
 11
21.0044
 21
-21.9059
  0
LINE
  8
0
 10
21.0044
 20
-21.9059
 11
21.0241
 21
-21.7818
  0
LINE
  8
0
 10
21.0241
 20
-21.7818
 11
21.0591
 21
-21.6613
  0
LINE
  8
0
 10
21.0591
 20
-21.6613
 11
21.109
 21
-21.546
  0
LINE
  8
0
 10
21.109
 20
-21.546
 11
21.1729
 21
-21.4379
  0
LINE
  8
0
 10
21.1729
 20
-21.4379
 11
21.2499
 21
-21.3387
  0
LINE
  8
0
 10
21.2499
 20
-21.3387
 11
21.3387
 21
-21.2499
  0
LINE
  8
0
 10
21.3387
 20
-21.2499
 11
21.4379
 21
-21.1729
  0
LINE
  8
0
 10
21.4379
 20
-21.1729
 11
21.546
 21
-21.109
  0
LINE
  8
0
 10
21.546
 20
-21.109
 11
21.6613
 21
-21.0591
  0
LINE
  8
0
 10
21.6613
 20
-21.0591
 11
21.7818
 21
-21.0241
  0
LINE
  8
0
 10
21.7818
 20
-21.0241
 11
21.9059
 21
-21.0044
  0
LINE
  8
0
 10
21.9059
 20
-21.0044
 11
22.0314
 21
-21.0005
  0
LINE
  8
0
 10
22.0314
 20
-21.0005
 11
22.1564
 21
-21.0123
  0
LINE
  8
0
 10
22.1564
 20
-21.0123
 11
22.279
 21
-21.0397
  0
LINE
  8
0
 10
22.279
 20
-21.0397
 11
22.3971
 21
-21.0822
  0
LINE
  8
0
 10
22.3971
 20
-21.0822
 11
22.509
 21
-21.1393
  0
LINE
  8
0
 10
22.509
 20
-21.1393
 11
22.6129
 21
-21.2098
  0
LINE
  8
0
 10
22.6129
 20
-21.2098
 11
22.7071
 21
-21.2929
  0
LINE
  8
0
 10
22.7071
 20
-21.2929
 11
22.7901
 21
-21.3871
  0
LINE
  8
0
 10
22.7901
 20
-21.3871
 11
22.8607
 21
-21.491
  0
LINE
  8
0
 10
22.8607
 20
-21.491
 11
22.9177
 21
-21.6028
  0
LINE
  8
0
 10
22.9177
 20
-21.6028
 11
22.9603
 21
-21.721
  0
LINE
  8
0
 10
22.9603
 20
-21.721
 11
22.9877
 21
-21.8436
  0
LINE
  8
0
 10
22.9877
 20
-21.8436
 11
22.9995
 21
-21.9686
  0
LINE
  8
0
 10
22.9995
 20
-21.9686
 11
22.9956
 21
-22.0941
  0
LINE
  8
0
 10
22.9956
 20
-22.0941
 11
22.9759
 21
-22.2181
  0
LINE
  8
0
 10
22.9759
 20
-22.2181
 11
22.9409
 21
-22.3387
  0
LINE
  8
0
 10
22.9409
 20
-22.3387
 11
22.891
 21
-22.454
  0
LINE
  8
0
 10
22.891
 20
-22.454
 11
22.8271
 21
-22.5621
  0
LINE
  8
0
 10
22.8271
 20
-22.5621
 11
22.7501
 21
-22.6613
  0
LINE
  8
0
 10
22.7501
 20
-22.6613
 11
22.6613
 21
-22.7501
  0
LINE
  8
0
 10
22.6613
 20
-22.7501
 11
22.5621
 21
-22.8271
  0
LINE
  8
0
 10
22.5621
 20
-22.8271
 11
22.454
 21
-22.891
  0
LINE
  8
0
 10
22.454
 20
-22.891
 11
22.3387
 21
-22.9409
  0
LINE
  8
0
 10
22.3387
 20
-22.9409
 11
22.2181
 21
-22.9759
  0
LINE
  8
0
 10
22.2181
 20
-22.9759
 11
22.0941
 21
-22.9956
  0
LINE
  8
0
 10
22.0941
 20
-22.9956
 11
21.9686
 21
-22.9995
  0
LINE
  8
0
 10
21.9686
 20
-22.9995
 11
21.8436
 21
-22.9877
  0
LINE
  8
0
 10
-4.68837
 20
-32.9941
 11
-5.06213
 21
-32.9469
  0
LINE
  8
0
 10
-5.06213
 20
-32.9469
 11
-5.42705
 21
-32.8532
  0
LINE
  8
0
 10
-5.42705
 20
-32.8532
 11
-5.77733
 21
-32.7145
  0
LINE
  8
0
 10
-5.77733
 20
-32.7145
 11
-6.10747
 21
-32.533
  0
LINE
  8
0
 10
-6.10747
 20
-32.533
 11
-6.41226
 21
-32.3115
  0
LINE
  8
0
 10
-6.41226
 20
-32.3115
 11
-6.6869
 21
-32.0536
  0
LINE
  8
0
 10
-6.6869
 20
-32.0536
 11
-6.92705
 21
-31.7634
  0
LINE
  8
0
 10
-6.92705
 20
-31.7634
 11
-7.12891
 21
-31.4453
  0
LINE
  8
0
 10
-7.12891
 20
-31.4453
 11
-7.28932
 21
-31.1044
  0
LINE
  8
0
 10
-7.28932
 20
-31.1044
 11
-7.40575
 21
-30.7461
  0
LINE
  8
0
 10
-7.40575
 20
-30.7461
 11
-7.47633
 21
-30.376
  0
LINE
  8
0
 10
-7.47633
 20
-30.376
 11
-7.5
 21
-30
  0
LINE
  8
0
 10
-7.5
 20
-30
 11
-7.47633
 21
-29.624
  0
LINE
  8
0
 10
-7.47633
 20
-29.624
 11
-7.40575
 21
-29.2539
  0
LINE
  8
0
 10
-7.40575
 20
-29.2539
 11
-7.28932
 21
-28.8956
  0
LINE
  8
0
 10
-7.28932
 20
-28.8956
 11
-7.12891
 21
-28.5547
  0
LINE
  8
0
 10
-7.12891
 20
-28.5547
 11
-6.92705
 21
-28.2366
  0
LINE
  8
0
 10
-6.92705
 20
-28.2366
 11
-6.6869
 21
-27.9464
  0
LINE
  8
0
 10
-6.6869
 20
-27.9464
 11
-6.41226
 21
-27.6885
  0
LINE
  8
0
 10
-6.41226
 20
-27.6885
 11
-6.10747
 21
-27.467
  0
LINE
  8
0
 10
-6.10747
 20
-27.467
 11
-5.77733
 21
-27.2855
  0
LINE
  8
0
 10
-5.77733
 20
-27.2855
 11
-5.42705
 21
-27.1468
  0
LINE
  8
0
 10
-5.42705
 20
-27.1468
 11
-5.06213
 21
-27.0531
  0
LINE
  8
0
 10
-5.06213
 20
-27.0531
 11
-4.68837
 21
-27.0059
  0
LINE
  8
0
 10
-4.68837
 20
-27.0059
 11
-4.31161
 21
-27.0059
  0
LINE
  8
0
 10
-4.31161
 20
-27.0059
 11
-3.93785
 21
-27.0531
  0
LINE
  8
0
 10
-3.93785
 20
-27.0531
 11
-3.57294
 21
-27.1468
  0
LINE
  8
0
 10
-3.57294
 20
-27.1468
 11
-3.22266
 21
-27.2855
  0
LINE
  8
0
 10
-3.22266
 20
-27.2855
 11
-2.89252
 21
-27.467
  0
LINE
  8
0
 10
-2.89252
 20
-27.467
 11
-2.58772
 21
-27.6885
  0
LINE
  8
0
 10
-2.58772
 20
-27.6885
 11
-2.31308
 21
-27.9464
  0
LINE
  8
0
 10
-2.31308
 20
-27.9464
 11
-2.07294
 21
-28.2366
  0
LINE
  8
0
 10
-2.07294
 20
-28.2366
 11
-1.93567
 21
-28.453
  0
LINE
  8
0
 10
-1.93567
 20
-28.453
 11
5.09416
 21
-28.453
  0
LINE
  8
0
 10
5.09416
 20
-28.453
 11
5.28105
 21
-28.4766
  0
LINE
  8
0
 10
5.28105
 20
-28.4766
 11
5.4635
 21
-28.5234
  0
LINE
  8
0
 10
5.4635
 20
-28.5234
 11
5.63864
 21
-28.5928
  0
LINE
  8
0
 10
5.63864
 20
-28.5928
 11
5.80371
 21
-28.6835
  0
LINE
  8
0
 10
5.80371
 20
-28.6835
 11
5.95612
 21
-28.7943
  0
LINE
  8
0
 10
5.95612
 20
-28.7943
 11
6.09343
 21
-28.9232
  0
LINE
  8
0
 10
6.09343
 20
-28.9232
 11
6.2135
 21
-29.0683
  0
LINE
  8
0
 10
6.2135
 20
-29.0683
 11
6.31444
 21
-29.2274
  0
LINE
  8
0
 10
6.31444
 20
-29.2274
 11
6.39464
 21
-29.3978
  0
LINE
  8
0
 10
6.39464
 20
-29.3978
 11
6.45285
 21
-29.577
  0
LINE
  8
0
 10
6.45285
 20
-29.577
 11
6.48814
 21
-29.762
  0
LINE
  8
0
 10
6.48814
 20
-29.762
 11
6.49998
 21
-29.95
  0
LINE
  8
0
 10
6.49998
 20
-29.95
 11
6.49998
 21
-30.05
  0
LINE
  8
0
 10
6.49998
 20
-30.05
 11
6.48814
 21
-30.238
  0
LINE
  8
0
 10
6.48814
 20
-30.238
 11
6.45285
 21
-30.423
  0
LINE
  8
0
 10
6.45285
 20
-30.423
 11
6.39464
 21
-30.6022
  0
LINE
  8
0
 10
6.39464
 20
-30.6022
 11
6.31444
 21
-30.7726
  0
LINE
  8
0
 10
6.31444
 20
-30.7726
 11
6.2135
 21
-30.9317
  0
LINE
  8
0
 10
6.2135
 20
-30.9317
 11
6.09343
 21
-31.0768
  0
LINE
  8
0
 10
6.09343
 20
-31.0768
 11
5.95612
 21
-31.2057
  0
LINE
  8
0
 10
5.95612
 20
-31.2057
 11
5.80371
 21
-31.3165
  0
LINE
  8
0
 10
5.80371
 20
-31.3165
 11
5.63864
 21
-31.4072
  0
LINE
  8
0
 10
5.63864
 20
-31.4072
 11
5.4635
 21
-31.4766
  0
LINE
  8
0
 10
5.4635
 20
-31.4766
 11
5.28105
 21
-31.5234
  0
LINE
  8
0
 10
5.28105
 20
-31.5234
 11
5.09416
 21
-31.547
  0
LINE
  8
0
 10
5.09416
 20
-31.547
 11
-1.93567
 21
-31.547
  0
LINE
  8
0
 10
-1.93567
 20
-31.547
 11
-2.07294
 21
-31.7634
  0
LINE
  8
0
 10
-2.07294
 20
-31.7634
 11
-2.31308
 21
-32.0536
  0
LINE
  8
0
 10
-2.31308
 20
-32.0536
 11
-2.58772
 21
-32.3115
  0
LINE
  8
0
 10
-2.58772
 20
-32.3115
 11
-2.89252
 21
-32.533
  0
LINE
  8
0
 10
-2.89252
 20
-32.533
 11
-3.22266
 21
-32.7145
  0
LINE
  8
0
 10
-3.22266
 20
-32.7145
 11
-3.57294
 21
-32.8532
  0
LINE
  8
0
 10
-3.57294
 20
-32.8532
 11
-3.93785
 21
-32.9469
  0
LINE
  8
0
 10
-3.93785
 20
-32.9469
 11
-4.31161
 21
-32.9941
  0
LINE
  8
0
 10
-4.31161
 20
-32.9941
 11
-4.68837
 21
-32.9941
  0
ENDSEC
  0
SECTION
  2
OBJECTS
  0
DICTIONARY
  0
ENDSEC
  0
EOF
